<?xml version="1.0" standalone="no"?>
<!DOCTYPE svg PUBLIC "-//W3C//DTD SVG 20010904//EN"
 "http://www.w3.org/TR/2001/REC-SVG-20010904/DTD/svg10.dtd">
<svg version="1.0" xmlns="http://www.w3.org/2000/svg"
 width="298.000000pt" height="245.000000pt" viewBox="0 0 298.000000 245.000000"
 preserveAspectRatio="xMidYMid meet">

<g transform="translate(0.000000,245.000000) scale(0.100000,-0.100000)"
fill="#000000" stroke="none">
<path d="M1431 2268 c-45 -68 -217 -319 -383 -558 -641 -927 -958 -1390 -958
-1400 0 -5 6 -10 13 -10 6 0 170 -20 362 -45 369 -47 426 -52 408 -34 -6 6
-152 28 -324 49 -173 22 -334 42 -358 46 l-45 6 65 41 c373 238 704 436 723
432 11 -3 136 -18 276 -35 140 -17 265 -33 278 -36 21 -4 22 -7 22 -140 0
-104 3 -135 13 -132 8 3 13 42 15 137 3 132 3 133 25 128 12 -3 103 -15 202
-27 99 -13 183 -26 188 -29 4 -4 23 -63 41 -132 18 -68 52 -195 76 -282 23
-87 39 -161 36 -164 -4 -4 -66 0 -139 10 -73 9 -262 32 -420 53 -265 33 -312
36 -294 18 7 -7 345 -53 689 -95 l178 -21 92 59 c51 33 118 75 148 94 43 27
50 35 34 37 -12 2 -66 -26 -132 -68 -61 -38 -115 -70 -119 -70 -10 0 -159 548
-151 555 6 6 812 -92 847 -103 23 -8 17 -13 -63 -62 -91 -56 -108 -70 -81 -70
27 0 224 124 225 141 0 8 -36 62 -80 120 -97 126 -89 116 -548 714 -202 264
-412 539 -466 610 -213 278 -297 385 -304 385 -5 0 -45 -55 -91 -122z m250
-113 c62 -82 161 -211 219 -287 58 -75 223 -291 368 -480 144 -188 341 -446
437 -572 97 -126 173 -231 171 -233 -6 -7 -857 97 -882 107 -17 6 -27 30 -48
112 -14 56 -48 184 -75 283 -26 99 -92 344 -146 545 -53 201 -114 426 -135
500 -21 74 -41 151 -45 170 -9 46 -7 43 136 -145z m-226 51 c-14 -38 -24 -70
-21 -73 2 -2 16 29 32 69 15 40 31 77 36 83 4 5 8 -211 8 -479 0 -386 3 -487
13 -484 9 4 13 104 15 444 l4 439 24 -85 c13 -47 63 -229 109 -405 47 -176
108 -401 135 -500 99 -360 138 -510 135 -515 -2 -4 -94 5 -204 19 l-200 26 -3
100 c-4 128 -22 128 -26 0 -2 -71 -6 -95 -16 -95 -37 0 -552 72 -558 78 -3 4
23 81 58 171 36 90 63 165 61 167 -2 3 -34 -71 -70 -163 l-67 -168 -201 -125
c-500 -310 -564 -349 -567 -345 -2 2 47 77 109 167 62 90 157 228 212 307 54
79 115 166 134 194 19 27 105 151 191 275 86 125 190 277 232 337 42 61 148
214 235 340 213 308 210 304 213 296 1 -4 -9 -38 -23 -75z"/>
<path d="M1374 1998 c-26 -68 -85 -220 -132 -338 -124 -318 -183 -473 -179
-476 3 -4 54 121 153 376 30 80 89 228 129 330 78 198 89 230 81 230 -2 0 -26
-55 -52 -122z"/>
<path d="M1505 1240 c-4 -6 -5 -13 -2 -16 2 -3 -1 -32 -8 -64 -10 -49 -10 -60
0 -60 9 0 15 24 20 71 7 69 4 91 -10 69z"/>
<path d="M1550 1169 c0 -13 -3 -34 -6 -46 -4 -16 -2 -23 7 -23 15 0 20 72 7
86 -5 4 -8 -4 -8 -17z"/>
<path d="M2493 367 c3 -9 9 -32 13 -51 3 -20 10 -33 15 -30 5 3 7 15 3 28 -3
12 -6 31 -8 41 -2 10 -9 21 -16 23 -9 3 -11 -1 -7 -11z"/>
<path d="M2550 361 c0 -33 22 -83 32 -73 6 6 6 17 -1 30 -6 11 -11 30 -11 41
0 12 -4 21 -10 21 -5 0 -10 -8 -10 -19z"/>
<path d="M1042 215 c-2 -26 -7 -57 -12 -70 -8 -21 -6 -25 8 -25 13 0 17 9 18
38 0 20 3 52 7 70 4 22 3 32 -6 32 -7 0 -13 -18 -15 -45z"/>
</g>
</svg>
